#!OML:ASF F:\VICON\USERDATA\INSTALL\rory3\rory3.ASF
:FULLY-SPECIFIED
:DEGREES
619
root -1.93929 16.6791 22.5595 -156.946 -17.3526 -181.477
lowerback -28.5502 -0.368223 -6.25383
upperback -18.3182 -4.70108 -2.9922
thorax -5.24744 -4.35412 -0.63397
lowerneck 1.68947 2.66548 -1.5317
upperneck 45.4882 -9.81602 7.61776
head 17.0403 -7.43928 1.3523
rclavicle 1.74931e-014 -4.05521e-014
rhumerus -38.9477 37.0922 -34.7485
rradius 108.465
rwrist 33.5692
rhand -27.8488 61.2331
rfingers 7.12502
rthumb -1.23992 31.257
lclavicle 1.74931e-014 -4.05521e-014
lhumerus -15.1111 -55.1984 26.9336
lradius 105.921
lwrist -53.1467
lhand -42.2443 -0.627723
lfingers 7.12502
lthumb -15.1305 28.7992
rfemur 110.63 -190.937 -181.227
rtibia 43.7402
rfoot -59.73 -3.95777
rtoes 62.7838
lfemur -25.042 -0.371948 -34.7139
ltibia 29.7145
lfoot -40.7306 27.4706
ltoes -8.12128
620
root -1.94105 16.6738 22.5435 -156.667 -17.1541 -181.544
lowerback -28.6951 -0.0113875 -6.26196
upperback -18.8406 -4.54416 -3.26296
thorax -5.87305 -4.39279 -0.850945
lowerneck 1.35513 2.72183 -1.72748
upperneck 45.8825 -9.90378 7.7812
head 17.4026 -7.52346 1.41886
rclavicle -5.40694e-014 1.59028e-015
rhumerus -44.8314 37.1089 -37.742
rradius 106.593
rwrist 34.9157
rhand -27.8239 61.0832
rfingers 7.12502
rthumb -1.21586 31.1069
lclavicle -5.40694e-014 1.59028e-015
lhumerus -21.3147 -55.6927 30.9801
lradius 103.82
lwrist -52.8129
lhand -42.4708 -1.47901
lfingers 7.12502
lthumb -15.3487 27.9313
rfemur 110.311 -190.882 -181.343
rtibia 43.6834
rfoot -59.7036 -4.78139
rtoes 62.7263
lfemur -25.3024 -0.0868791 -34.8665
ltibia 29.7438
lfoot -39.7601 25.9191
ltoes -5.25847
621
root -1.9388 16.6714 22.5312 -156.396 -16.9404 -181.508
lowerback -29.0575 0.281672 -6.24909
upperback -19.4711 -4.46804 -3.4843
thorax -6.15453 -4.46335 -0.992987
lowerneck 1.11445 2.75594 -1.72458
upperneck 46.114 -9.83651 7.71029
head 17.5957 -7.5135 1.37562
rclavicle -6.40087e-014 -4.45278e-014
rhumerus -50.2482 36.8668 -40.6681
rradius 104.504
rwrist 35.1655
rhand -27.8395 58.6558
rfingers 7.12502
rthumb -1.23086 28.6796
lclavicle -6.40087e-014 -4.45278e-014
lhumerus -27.3285 -55.5287 34.7909
lradius 101.578
lwrist -52.1664
lhand -42.6979 -2.28222
lfingers 7.12502
lthumb -15.5674 27.1112
rfemur 109.931 -190.891 -181.369
rtibia 43.6138
rfoot -59.7967 -5.71729
rtoes 62.5589
lfemur -25.6351 -0.0774038 -34.8685
ltibia 29.8164
lfoot -40.1288 26.6218
ltoes -7.0843
622
root -1.93824 16.6722 22.5187 -156.144 -16.8576 -181.532
lowerback -28.6121 -0.775474 -5.93701
upperback -18.845 -5.56093 -1.97657
thorax -5.75269 -4.82874 0.155554
lowerneck -4.57307 3.02342 -3.44278
upperneck 47.2566 -7.85762 6.75439
head 19.6005 -6.61852 1.42039
rclavicle 7.55382e-015 3.37934e-014
rhumerus -48.4884 36.436 -40.2088
rradius 101.333
rwrist 33.2805
rhand -28.1336 56.3939
rfingers 7.12502
rthumb -1.51491 26.4196
lclavicle 7.55382e-015 3.37934e-014
lhumerus -33.8619 -50.6956 38.6237
lradius 99.0368
lwrist -51.1759
lhand -42.5351 -2.76768
lfingers 7.12502
lthumb -15.4106 26.6379
rfemur 109.677 -190.785 -181.378
rtibia 43.5779
rfoot -59.8188 -6.50038
rtoes 62.3517
lfemur -25.8824 0.0218772 -34.9269
ltibia 29.8642
lfoot -40.6091 27.5186
ltoes -8.71427
623
root -1.94141 16.6734 22.5051 -155.962 -16.9701 -181.413
lowerback -28.7897 -0.564486 -5.66873
upperback -19.0238 -5.45652 -2.17639
thorax -5.93514 -4.8588 -0.182845
lowerneck -5.7573 2.83419 -3.49688
upperneck 47.3576 -7.88886 6.77643
head 20.0262 -6.53098 1.42233
rclavicle 5.84427e-014 5.48646e-014
rhumerus -52.1738 34.934 -42.3636
rradius 98.282
rwrist 29.9748
rhand -28.2602 54.9903
rfingers 7.12502
rthumb -1.63725 25.0168
lclavicle 5.84427e-014 5.48646e-014
lhumerus -37.1669 -49.6697 40.1504
lradius 96.325
lwrist -50.3445
lhand -41.5793 -3.06599
lfingers 7.12502
lthumb -14.4898 26.4081
rfemur 109.565 -190.607 -181.152
rtibia 43.5734
rfoot -59.8205 -6.22706
rtoes 62.3797
lfemur -26.067 0.187828 -34.8184
ltibia 29.8551
lfoot -40.2435 27.5272
ltoes -9.3122
624
root -1.93887 16.6704 22.4919 -155.871 -16.8504 -181.381
lowerback -28.7796 -0.384302 -5.61678
upperback -19.2598 -5.37357 -2.28226
thorax -6.2552 -4.87185 -0.280663
lowerneck -6.6707 2.63173 -3.55024
upperneck 47.2939 -7.81478 6.64556
head 20.23 -6.41728 1.37902
rclavicle 4.01545e-014 3.49861e-014
rhumerus -55.3975 33.5045 -43.7683
rradius 95.0877
rwrist 25.6782
rhand -28.3314 53.9816
rfingers 7.12502
rthumb -1.70602 24.0087
lclavicle 4.01545e-014 3.49861e-014
lhumerus -40.5381 -48.5727 41.5875
lradius 93.2732
lwrist -50.1862
lhand -39.9561 -1.92647
lfingers 7.12502
lthumb -12.9255 27.6532
rfemur 109.397 -190.619 -181.09
rtibia 43.6265
rfoot -59.9133 -6.31726
rtoes 62.3231
lfemur -26.113 0.318515 -34.8037
ltibia 29.7646
lfoot -39.4907 26.6547
ltoes -7.82014
625
root -1.93098 16.6666 22.4742 -155.788 -16.6137 -181.634
lowerback -28.8167 -0.375866 -5.96015
upperback -19.4313 -5.40181 -2.32815
thorax -6.45666 -4.89121 -0.128302
lowerneck -7.53867 2.42326 -3.66027
upperneck 47.1435 -7.60915 6.36182
head 20.3296 -6.26808 1.3001
rclavicle 3.97569e-015 0
rhumerus -58.0934 32.1738 -44.4934
rradius 92.2059
rwrist 20.8445
rhand -28.1776 53.5612
rfingers 7.12502
rthumb -1.55744 23.5871
lclavicle 3.97569e-015 0
lhumerus -43.7943 -47.3188 42.9053
lradius 90.7488
lwrist -48.061
lhand -40.1564 -2.10126
lfingers 7.12502
lthumb -13.1185 27.4661
rfemur 109.257 -190.635 -181.311
rtibia 43.7339
rfoot -59.925 -6.74284
rtoes 62.2884
lfemur -25.9844 0.289686 -35.0571
ltibia 29.628
lfoot -39.3294 26.0646
ltoes -6.32938
626
root -1.92335 16.6642 22.4579 -155.641 -16.3896 -181.937
lowerback -29.1576 -0.421098 -6.38371
upperback -19.6936 -5.45601 -2.38864
thorax -6.25072 -4.91443 0.0270566
lowerneck -8.36839 2.18649 -3.7717
upperneck 46.8611 -7.39131 6.094
head 20.3225 -6.09716 1.24115
rclavicle 7.99114e-014 7.79236e-014
rhumerus -59.8483 30.5007 -44.5385
rradius 89.1424
rwrist 16.2768
rhand -27.4083 54.7232
rfingers 7.12502
rthumb -0.814476 24.745
lclavicle 7.99114e-014 7.79236e-014
lhumerus -46.5433 -45.8558 43.742
lradius 87.9119
lwrist -46.5805
lhand -41.1088 -2.01336
lfingers 7.12502
lthumb -14.0365 27.4927
rfemur 109.105 -190.609 -181.57
rtibia 43.8404
rfoot -59.8563 -7.02015
rtoes 62.2785
lfemur -25.8783 -0.468911 -35.2443
ltibia 29.4799
lfoot -39.9076 26.4377
ltoes -5.4632
627
root -1.92097 16.6614 22.4453 -155.5 -16.1823 -182.044
lowerback -29.2921 -0.316224 -6.38617
upperback -19.7952 -5.40369 -2.52021
thorax -6.33104 -4.93038 -0.095061
lowerneck -9.47626 1.91229 -3.93179
upperneck 46.4995 -7.22644 6.02085
head 20.3703 -5.90044 1.28308
rclavicle 7.55382e-015 -4.65156e-014
rhumerus -60.7321 28.2963 -44.0143
rradius 85.7009
rwrist 13.1996
rhand -26.7538 55.8595
rfingers 7.12502
rthumb -0.182285 25.8798
lclavicle 7.55382e-015 -4.65156e-014
lhumerus -48.9684 -44.6241 44.2846
lradius 85.3266
lwrist -44.8366
lhand -40.5414 -1.42694
lfingers 7.12502
lthumb -13.4896 28.1162
rfemur 108.92 -190.624 -181.66
rtibia 43.9246
rfoot -59.7201 -6.90662
rtoes 62.3322
lfemur -25.8827 -0.719469 -35.3512
ltibia 29.3516
lfoot -40.1917 26.5935
ltoes -5.21902
628
root -1.91809 16.657 22.4309 -155.363 -16.0553 -182.007
lowerback -29.5446 -0.22336 -6.20659
upperback -19.8033 -5.35689 -2.61939
thorax -6.25566 -4.9568 -0.300227
lowerneck -10.8926 1.62148 -3.86636
upperneck 46.0452 -6.93283 5.76156
head 20.4092 -5.58649 1.22241
rclavicle -2.62396e-014 -2.62396e-014
rhumerus -61.3216 26.1864 -43.0646
rradius 82.3567
rwrist 11.6648
rhand -26.3312 56.7141
rfingers 7.12502
rthumb 0.225834 26.7344
lclavicle -2.62396e-014 -2.62396e-014
lhumerus -50.7535 -42.9779 43.987
lradius 82.6149
lwrist -43.9914
lhand -39.9725 -2.51591
lfingers 7.12502
lthumb -12.9413 27.0628
rfemur 108.733 -190.627 -181.589
rtibia 43.9641
rfoot -59.6356 -6.98272
rtoes 62.3159
lfemur -25.9706 -0.62637 -35.3411
ltibia 29.2781
lfoot -40.2423 26.616
ltoes -5.21318
629
root -1.91276 16.6502 22.4129 -155.239 -15.9028 -182.046
lowerback -29.7962 -0.178156 -6.13407
upperback -19.8419 -5.36811 -2.69196
thorax -6.21127 -5.00545 -0.430243
lowerneck -11.8501 1.39546 -3.73835
upperneck 45.1815 -6.47113 5.56916
head 20.0068 -5.17316 1.24339
rclavicle 3.65764e-014 6.08281e-014
rhumerus -62.038 24.543 -41.946
rradius 79.5356
rwrist 11.5865
rhand -26.515 57.7373
rfingers 7.12502
rthumb 0.0483594 27.7576
lclavicle 3.65764e-014 6.08281e-014
lhumerus -52.4192 -41.2738 43.3544
lradius 79.9204
lwrist -43.8731
lhand -39.6865 -3.67315
lfingers 7.12502
lthumb -12.6655 25.9228
rfemur 108.602 -190.644 -181.586
rtibia 43.9984
rfoot -59.5118 -6.65785
rtoes 62.4443
lfemur -26.0105 -0.695926 -35.3753
ltibia 29.2206
lfoot -40.3561 26.7522
ltoes -5.3009
630
root -1.90639 16.6485 22.3974 -154.984 -15.7043 -182.288
lowerback -29.8934 -0.160242 -6.24791
upperback -20.019 -5.4534 -2.79555
thorax -6.38836 -5.09224 -0.482538
lowerneck -12.2533 1.22553 -3.77027
upperneck 43.9322 -5.92506 5.57262
head 19.2156 -4.73421 1.42054
rclavicle -5.56597e-015 3.97569e-014
rhumerus -62.8846 23.374 -40.8765
rradius 77.1982
rwrist 12.4564
rhand -27.522 58.209
rfingers 7.12502
rthumb -0.924265 28.2312
lclavicle -5.56597e-015 3.97569e-014
lhumerus -54.2471 -39.9365 42.8662
lradius 77.2653
lwrist -43.9225
lhand -39.4829 -3.65873
lfingers 7.12502
lthumb -12.4692 25.9493
rfemur 108.357 -190.573 -181.802
rtibia 44.058
rfoot -59.3777 -6.23105
rtoes 62.6118
lfemur -26.1155 -0.65837 -35.6488
ltibia 29.1403
lfoot -40.3668 26.64
ltoes -5.44648
631
root -1.8995 16.647 22.3834 -154.786 -15.353 -182.575
lowerback -29.8915 -0.121403 -6.44719
upperback -20.1844 -5.48966 -2.90929
thorax -6.59215 -5.14081 -0.482906
lowerneck -13.3954 0.909111 -3.63966
upperneck 43.0487 -5.55896 5.14485
head 18.9021 -4.38992 1.30156
rclavicle 1.43125e-014 1.03368e-014
rhumerus -63.6594 22.4796 -39.9055
rradius 74.9837
rwrist 13.306
rhand -28.4804 58.0894
rfingers 7.12502
rthumb -1.84986 28.1177
lclavicle 1.43125e-014 1.03368e-014
lhumerus -55.9647 -38.7581 42.2942
lradius 74.6709
lwrist -44.0713
lhand -38.8785 -4.0072
lfingers 7.12502
lthumb -11.8865 25.6354
rfemur 108.12 -190.632 -182.113
rtibia 44.1298
rfoot -59.2934 -6.09382
rtoes 62.6212
lfemur -26.1483 -0.316263 -36.0537
ltibia 29.0142
lfoot -40.2056 26.4759
ltoes -5.48912
632
root -1.90307 16.644 22.3654 -154.96 -14.9291 -182.487
lowerback -29.8605 0.0603349 -6.17734
upperback -20.2425 -5.37264 -2.94941
thorax -6.68061 -5.12897 -0.630934
lowerneck -14.087 0.640631 -3.50239
upperneck 41.667 -5.09201 4.83862
head 18.1751 -3.97162 1.2783
rclavicle -1.43125e-014 1.27222e-014
rhumerus -63.5151 21.1328 -38.5188
rradius 71.753
rwrist 13.8499
rhand -28.4573 58.2949
rfingers 7.12502
rthumb -1.82756 28.323
lclavicle -1.43125e-014 1.27222e-014
lhumerus -57.8338 -37.9754 41.7872
lradius 72.1847
lwrist -43.7194
lhand -38.3152 -4.924
lfingers 7.12502
lthumb -11.3433 24.7492
rfemur 108.146 -191.032 -182.075
rtibia 44.1799
rfoot -59.254 -5.70426
rtoes 62.6996
lfemur -25.9017 0.0516788 -36.1167
ltibia 28.8798
lfoot -40.3678 26.4995
ltoes -5.34887
